<?xml version="1.0" encoding="UTF-8" standalone="no"?>
<svg
   xmlns:dc="http://purl.org/dc/elements/1.1/"
   xmlns:cc="http://creativecommons.org/ns#"
   xmlns:rdf="http://www.w3.org/1999/02/22-rdf-syntax-ns#"
   xmlns:svg="http://www.w3.org/2000/svg"
   xmlns="http://www.w3.org/2000/svg"
   xmlns:sodipodi="http://sodipodi.sourceforge.net/DTD/sodipodi-0.dtd"
   xmlns:inkscape="http://www.inkscape.org/namespaces/inkscape"
   id="svg1041"
   version="1.1"
   viewBox="0 0 216.13512 44.60429"
   height="168.58315"
   width="816.88867"
   sodipodi:docname="logo.svg"
   inkscape:version="0.92.3 (2405546, 2018-03-11)">
  <sodipodi:namedview
     pagecolor="#ffffff"
     bordercolor="#666666"
     borderopacity="1"
     objecttolerance="10"
     gridtolerance="10"
     guidetolerance="10"
     inkscape:pageopacity="0"
     inkscape:pageshadow="2"
     inkscape:window-width="1920"
     inkscape:window-height="976"
     id="namedview835"
     showgrid="false"
     inkscape:zoom="2"
     inkscape:cx="247.13479"
     inkscape:cy="80.667648"
     inkscape:window-x="0"
     inkscape:window-y="27"
     inkscape:window-maximized="1"
     inkscape:current-layer="layer1" />
  <defs
     id="defs1035" />
  <metadata
     id="metadata1038">
    <rdf:RDF>
      <cc:Work
         rdf:about="">
        <dc:format>image/svg+xml</dc:format>
        <dc:type
           rdf:resource="http://purl.org/dc/dcmitype/StillImage" />
        <dc:title></dc:title>
      </cc:Work>
    </rdf:RDF>
  </metadata>
  <g
     transform="translate(1.0331218,305.82075)"
     id="layer1">
    <g
       id="flowRoot962-9"
       style="font-style:normal;font-variant:normal;font-weight:normal;font-stretch:normal;font-size:17.33333397px;line-height:1.25;font-family:josephsophia;-inkscape-font-specification:josephsophia;font-variant-ligatures:normal;font-variant-caps:normal;font-variant-numeric:normal;text-align:center;letter-spacing:0px;word-spacing:0px;writing-mode:lr-tb;text-anchor:middle;fill:#2e51c7;fill-opacity:1;stroke:none"
       transform="matrix(0.26458333,0,0,0.26458333,-310.82353,-91.340216)"
       aria-label="caveau">
      <path
         id="path1623"
         style="font-style:normal;font-variant:normal;font-weight:normal;font-stretch:normal;font-size:96px;font-family:'Space Grotesk';-inkscape-font-specification:'Space Grotesk';fill:#2e51c7;fill-opacity:1;stroke-width:1"
         d="m 1399.2256,-725.33119 c 0,27.28176 19.6429,46.92463 46.1972,46.92463 24.9173,0 38.7401,-16.55094 42.3776,-34.19314 l -13.8227,-2.72818 c -2.5463,13.09525 -10.7308,24.18983 -28.5549,24.18983 -18.7335,0 -32.1925,-14.00464 -32.1925,-34.19314 0,-20.00663 13.459,-34.01127 31.8287,-34.01127 16.5509,0 26.918,10.1852 28.5549,24.00795 l 13.8228,-2.72817 c -3.2738,-19.27911 -19.0973,-34.19314 -42.3777,-34.19314 -26.1905,0 -45.8334,19.64287 -45.8334,46.92463 z" />
      <path
         id="path1625"
         style="font-style:normal;font-variant:normal;font-weight:normal;font-stretch:normal;font-size:96px;font-family:'Space Grotesk';-inkscape-font-specification:'Space Grotesk';fill:#2e51c7;fill-opacity:1;stroke-width:1"
         d="m 1504.2519,-745.5197 12.1859,5.63823 c 5.0926,-11.64021 14.3684,-19.82474 30.3737,-19.82474 16.0053,0 25.0992,8.54828 25.0992,22.00729 v 3.45568 l -35.1026,3.27382 c -20.5522,2.00066 -33.8293,10.18519 -33.8293,26.37237 0,16.0053 13.8227,26.19049 33.1018,26.19049 19.0973,0 29.1006,-8.91204 33.4657,-17.46033 h 2.5463 v 14.91403 h 13.6408 v -56.01855 c 0,-21.27978 -14.5502,-35.28441 -38.5582,-35.28441 -22.1892,0 -36.3757,12.91336 -42.9233,26.73612 z m 12.7315,40.55889 c 0,-10.00331 9.2758,-13.82276 21.6435,-14.91403 l 33.2838,-3.09193 v 1.81878 c 0,18.36972 -12.5496,30.91933 -34.0113,30.91933 -12.3677,0 -20.916,-5.09259 -20.916,-14.73215 z" />
      <path
         id="path1627"
         style="font-style:normal;font-variant:normal;font-weight:normal;font-stretch:normal;font-size:96px;font-family:'Space Grotesk';-inkscape-font-specification:'Space Grotesk';fill:#2e51c7;fill-opacity:1;stroke-width:1"
         d="m 1597.7232,-769.70953 34.1931,88.75667 h 19.6429 l 34.1932,-88.75667 h -15.096 l -27.8274,75.11579 h -2.1825 l -27.8274,-75.11579 z" />
      <path
         id="path1629"
         style="font-style:normal;font-variant:normal;font-weight:normal;font-stretch:normal;font-size:96px;font-family:'Space Grotesk';-inkscape-font-specification:'Space Grotesk';fill:#2e51c7;fill-opacity:1;stroke-width:1"
         d="m 1696.199,-726.05871 c 0,26.91801 18.3697,47.65215 46.0152,47.65215 22.1892,0 33.1019,-12.18586 39.4676,-23.6442 l -12.1858,-6.36574 c -4.9107,10.18519 -12.9134,17.64221 -27.4636,17.64221 -17.8241,0 -30.1919,-11.45834 -31.2831,-30.00994 h 72.5695 v -7.45702 c 0,-26.19049 -17.4604,-44.19645 -42.9234,-44.19645 -25.6448,0 -44.1964,20.37038 -44.1964,46.37899 z m 14.5503,-6.18386 c 1.6369,-17.46033 12.9133,-27.8274 29.6461,-27.8274 16.9147,0 28.0093,10.18519 28.3731,27.8274 z" />
      <path
         id="path1631"
         style="font-style:normal;font-variant:normal;font-weight:normal;font-stretch:normal;font-size:96px;font-family:'Space Grotesk';-inkscape-font-specification:'Space Grotesk';fill:#2e51c7;fill-opacity:1;stroke-width:1"
         d="m 1799.8043,-745.5197 12.1859,5.63823 c 5.0926,-11.64021 14.3684,-19.82474 30.3737,-19.82474 16.0053,0 25.0992,8.54828 25.0992,22.00729 v 3.45568 l -35.1025,3.27382 c -20.5523,2.00066 -33.8294,10.18519 -33.8294,26.37237 0,16.0053 13.8227,26.19049 33.1019,26.19049 19.0972,0 29.1005,-8.91204 33.4656,-17.46033 h 2.5463 v 14.91403 h 13.6409 v -56.01855 c 0,-21.27978 -14.5503,-35.28441 -38.5583,-35.28441 -22.1891,0 -36.3756,12.91336 -42.9233,26.73612 z m 12.7315,40.55889 c 0,-10.00331 9.2758,-13.82276 21.6435,-14.91403 l 33.2838,-3.09193 v 1.81878 c 0,18.36972 -12.5496,30.91933 -34.0113,30.91933 -12.3677,0 -20.916,-5.09259 -20.916,-14.73215 z" />
      <path
         id="path1633"
         style="font-style:normal;font-variant:normal;font-weight:normal;font-stretch:normal;font-size:96px;font-family:'Space Grotesk';-inkscape-font-specification:'Space Grotesk';fill:#2e51c7;fill-opacity:1;stroke-width:1"
         d="m 1987.7501,-680.95286 v -88.75667 h -14.0046 v 45.65149 c 0,21.09789 -12.004,32.37435 -29.4643,32.37435 -15.4597,0 -24.9174,-8.18453 -24.9174,-25.46297 v -52.56287 h -13.8228 v 53.83601 c 0,24.55359 16.1872,36.55757 34.9207,36.55757 18.006,0 26.5543,-8.73017 31.1012,-17.46033 h 2.5463 v 15.82342 z" />
    </g>
    <path
       style="opacity:1;vector-effect:none;fill:#2e51c7;fill-opacity:1;fill-rule:evenodd;stroke:none;stroke-width:1.00157475;stroke-linecap:round;stroke-linejoin:bevel;stroke-miterlimit:4;stroke-dasharray:none;stroke-dashoffset:0;stroke-opacity:1;paint-order:fill markers stroke"
       d="M 37.957031 0 C 16.928117 0 0 16.93007 0 37.958984 L 0 130.625 C 0 151.65391 16.928117 168.58398 37.957031 168.58398 L 130.62305 168.58398 C 151.652 168.58398 168.58008 151.65391 168.58008 130.625 L 168.58008 37.958984 C 168.58008 16.93007 151.652 0 130.62305 0 L 37.957031 0 z M 86.380859 28.726562 L 86.382812 28.726562 C 96.446636 28.769649 106.53122 30.926362 115.34961 35.263672 C 124.43794 39.733681 131.54852 45.87425 136.86719 53.841797 C 139.24908 57.409936 142.72699 64.356137 142.26562 64.623047 C 142.08232 64.729252 119.25728 71.75747 118.93164 71.8125 C 118.82203 71.831398 118.33348 70.939924 117.84766 69.832031 C 113.51987 59.965007 104.37054 52.982848 93.304688 51.103516 C 80.591453 48.944423 68.398337 52.569597 60.53125 60.851562 C 54.696453 66.994051 51.635875 74.98797 51.638672 84.074219 C 51.641695 93.53963 54.782643 101.49358 60.951172 107.66211 C 65.586007 112.29687 71.491197 115.36184 78.320312 116.67969 C 90.872199 119.10195 103.46061 115.69369 111.48047 107.70312 C 114.19576 104.99766 115.84938 102.61692 117.70312 98.736328 C 118.43892 97.195944 119.12086 95.981311 119.21875 96.039062 C 119.37258 96.129771 133.36043 100.93782 140.08398 103.08398 L 142.41211 103.82812 L 141.9375 105.06836 C 141.68049 105.74497 140.98682 107.29472 140.40039 108.49805 C 131.9341 125.86872 114.81849 137.23851 93.779297 139.46484 C 91.085212 139.74982 84.974597 139.94221 82.574219 139.81836 C 66.263478 138.97934 52.083966 133.00721 41.716797 122.60742 C 30.890681 111.74714 25.235747 96.395694 26.294922 80.744141 C 27.479123 63.243945 35.951762 48.52906 50.404297 38.873047 C 60.536379 32.10361 73.441609 28.669681 86.380859 28.726562 z M 87.140625 68.123047 A 16.168772 16.168772 0 0 1 103.15039 82.173828 L 143.20312 82.173828 C 143.62191 82.173828 143.95898 82.510915 143.95898 82.929688 L 143.95898 85.341797 C 143.95898 85.760569 143.62191 86.097656 143.20312 86.097656 L 103.20117 86.097656 A 16.168772 16.168772 0 0 1 87.140625 100.46094 A 16.168772 16.168772 0 0 1 70.972656 84.292969 A 16.168772 16.168772 0 0 1 87.140625 68.123047 z "
       transform="matrix(0.26458333,0,0,0.26458333,-1.0331218,-305.82075)"
       id="rect1452-6-1-1-2-42" />
  </g>
</svg>
